<?xml version="1.0" encoding="UTF-8"?>
<!--
Additional SVG icons
-->
<svg xmlns="http://www.w3.org/2000/svg" style="display: none;">
  <!-- "Custom Heart Circle One" is a custom derivative of https://fontawesome.com/icons/heart-circle-exclamation and https://fontawesome.com/icons/1 --> 
  <symbol id='custom-heart-circle-one' viewBox="0 0 576 512">
    <path d="m137 42.3c-5.7 0.256-11.4 0.855-17.1 1.8-68.9 11.5-119 71.1-119 141v5.8c0 41.5 17.2 81.2 47.6 110l181 169c7.5 7 17.4 10.9 27.7 10.9s20.2-3.9 27.7-10.9l2.6-2.4c-19.1-28.1-30.3-62.1-30.3-98.7 0-97.2 78.8-176 176-176 28.3 0 55 6.7 78.7 18.5 0.9-6.5 1.3-13 1.3-19.6v-5.8c0-69.9-50.5-130-119-141-45.6-7.6-92 7.3-125 39.9l-12 12-12-12c-28.5-28.5-67.6-43.5-107-41.7zm295 182a144 144 0 0 0 0 288 144 144 0 0 0 0-288zm4.75 46.3c2.45-0.119 4.94 0.422 7.19 1.63 4.5 2.42 7.31 7.09 7.31 12.2v152h27.7c7.65 0 13.8 6.18 13.8 13.8s-6.19 13.8-13.8 13.8h-83c-7.65 0-13.8-6.19-13.8-13.8s6.18-13.8 13.8-13.8h27.7v-126l-20 13.4c-6.36 4.24-15 2.55-19.2-3.85-4.24-6.4-2.55-15 3.85-19.2l41.5-27.7c2.12-1.43 4.54-2.21 6.99-2.32z"></path>
  </symbol>  
</svg>